<svg width="41" height="31" viewBox="0 0 41 31" fill="none" xmlns="http://www.w3.org/2000/svg">
<path d="M39.9856 10.8403C40.2981 10.606 40.7668 10.8403 40.7668 11.231V27.1685C40.7668 29.2778 39.0481 30.9185 37.0168 30.9185H4.51685C2.40747 30.9185 0.766846 29.2778 0.766846 27.1685V11.231C0.766846 10.8403 1.15747 10.606 1.46997 10.8403C3.26685 12.2466 5.53247 13.9653 13.5012 19.7466C15.1418 20.9185 17.9543 23.4966 20.7668 23.4966C23.5012 23.4966 26.3918 20.9185 27.9543 19.7466C35.9231 13.9653 38.1887 12.2466 39.9856 10.8403ZM20.7668 20.9185C18.8918 20.9966 16.3137 18.6528 14.9856 17.7153C4.59497 10.2153 3.81372 9.51221 1.46997 7.63721C1.00122 7.32471 0.766846 6.77783 0.766846 6.15283V4.66846C0.766846 2.63721 2.40747 0.918457 4.51685 0.918457H37.0168C39.0481 0.918457 40.7668 2.63721 40.7668 4.66846V6.15283C40.7668 6.77783 40.4543 7.32471 39.9856 7.63721C37.6418 9.51221 36.8606 10.2153 26.47 17.7153C25.1418 18.6528 22.5637 20.9966 20.7668 20.9185Z" fill="#03AAE7"/>
</svg>
