<svg width="13" height="15" viewBox="0 0 13 15" fill="none" xmlns="http://www.w3.org/2000/svg">
<path d="M10.9375 2.25C11.6484 2.25 12.25 2.85156 12.25 3.5625V13.1875C12.25 13.9258 11.6484 14.5 10.9375 14.5H1.3125C0.574219 14.5 0 13.9258 0 13.1875V3.5625C0 2.85156 0.574219 2.25 1.3125 2.25H2.625V0.828125C2.625 0.664062 2.76172 0.5 2.95312 0.5H4.04688C4.21094 0.5 4.375 0.664062 4.375 0.828125V2.25H7.875V0.828125C7.875 0.664062 8.01172 0.5 8.20312 0.5H9.29688C9.46094 0.5 9.625 0.664062 9.625 0.828125V2.25H10.9375ZM10.7734 13.1875C10.8555 13.1875 10.9375 13.1328 10.9375 13.0234V4.875H1.3125V13.0234C1.3125 13.1328 1.36719 13.1875 1.47656 13.1875H10.7734Z" fill="#03AAE7"/>
</svg>
