<svg width="36" height="36" viewBox="0 0 36 36" fill="none" xmlns="http://www.w3.org/2000/svg">
<path d="M33.267 0.418457C34.5951 0.418457 35.767 1.59033 35.767 2.99658V32.9185C35.767 34.3247 34.5951 35.4185 33.267 35.4185H3.18884C1.86072 35.4185 0.766968 34.3247 0.766968 32.9185V2.99658C0.766968 1.59033 1.86072 0.418457 3.18884 0.418457H33.267ZM11.3138 30.4185V13.7778H6.15759V30.4185H11.3138ZM8.73572 11.4341C10.3763 11.4341 11.7045 10.106 11.7045 8.46533C11.7045 6.82471 10.3763 5.41846 8.73572 5.41846C7.01697 5.41846 5.68884 6.82471 5.68884 8.46533C5.68884 10.106 7.01697 11.4341 8.73572 11.4341ZM30.767 30.4185V21.2778C30.767 16.8247 29.7513 13.3091 24.517 13.3091C22.017 13.3091 20.2982 14.7153 19.5951 16.0435H19.517V13.7778H14.5951V30.4185H19.7513V22.2153C19.7513 20.0278 20.142 17.9185 22.8763 17.9185C25.5326 17.9185 25.5326 20.4185 25.5326 22.2935V30.4185H30.767Z" fill="#03AAE7"/>
</svg>
