<svg width="14" height="15" viewBox="0 0 14 15" fill="none" xmlns="http://www.w3.org/2000/svg">
<path d="M7.03125 0.71875C10.7773 0.71875 13.8125 3.75391 13.8125 7.5C13.8125 11.2461 10.7773 14.2812 7.03125 14.2812C3.28516 14.2812 0.25 11.2461 0.25 7.5C0.25 3.75391 3.28516 0.71875 7.03125 0.71875ZM7.03125 12.9688C10.0391 12.9688 12.5 10.5352 12.5 7.5C12.5 4.49219 10.0391 2.03125 7.03125 2.03125C3.99609 2.03125 1.5625 4.49219 1.5625 7.5C1.5625 10.5352 3.99609 12.9688 7.03125 12.9688ZM8.69922 10.125L6.375 8.42969C6.29297 8.375 6.26562 8.26562 6.26562 8.18359V3.67188C6.26562 3.50781 6.40234 3.34375 6.59375 3.34375H7.46875C7.63281 3.34375 7.79688 3.50781 7.79688 3.67188V7.55469L9.60156 8.89453C9.76562 9.00391 9.79297 9.19531 9.68359 9.35938L9.16406 10.043C9.05469 10.207 8.86328 10.2344 8.69922 10.125Z" fill="#03AAE7"/>
</svg>
