<svg width="41" height="38" viewBox="0 0 41 38" fill="none" xmlns="http://www.w3.org/2000/svg">
<path d="M9.00064 0.861816L13.3756 14.5337H3.06314L7.51627 0.861816C7.75064 0.158691 8.76627 0.158691 9.00064 0.861816ZM0.79752 21.4087L3.06314 14.5337L20.7194 37.5024L1.42252 23.1274C0.875645 22.7368 0.64127 22.0337 0.79752 21.4087ZM13.3756 14.5337H28.1413L20.7975 37.5024L13.3756 14.5337ZM40.7194 21.4087C40.8756 22.0337 40.6413 22.7368 40.0944 23.1274L20.7975 37.5024L38.4538 14.5337L40.7194 21.4087ZM34.0006 0.861816L38.4538 14.5337H28.1413L32.5163 0.861816C32.8288 0.158691 33.7663 0.158691 34.0006 0.861816Z" fill="#03AAE7"/>
</svg>
