<svg width="39" height="38" viewBox="0 0 39 38" fill="none" xmlns="http://www.w3.org/2000/svg">
<path d="M12.8906 30.4688C12.8906 30.625 12.7344 30.7031 12.5 30.7031C12.2656 30.7812 12.1094 30.625 12.1094 30.4688C12.1094 30.3125 12.2656 30.1562 12.5 30.1562C12.7344 30.1562 12.8906 30.3125 12.8906 30.4688ZM10.4688 30.0781C10.5469 29.9219 10.7812 29.8438 11.0156 29.9219C11.25 30 11.3281 30.1562 11.3281 30.3125C11.25 30.4688 11.0156 30.5469 10.8594 30.4688C10.625 30.4688 10.4688 30.2344 10.4688 30.0781ZM13.9844 30C14.1406 29.9219 14.375 30.0781 14.375 30.2344C14.4531 30.3906 14.2969 30.4688 14.0625 30.5469C13.8281 30.625 13.5938 30.5469 13.5938 30.3906C13.5938 30.1562 13.75 30 13.9844 30ZM19.0625 0C29.9219 0 38.75 8.28125 38.75 19.0625C38.75 27.7344 33.4375 35.1562 25.625 37.7344C24.6094 37.9688 24.2188 37.3438 24.2188 36.7969C24.2188 36.1719 24.2969 32.8906 24.2969 30.3125C24.2969 28.4375 23.6719 27.2656 22.9688 26.6406C27.3438 26.1719 31.9531 25.5469 31.9531 18.0469C31.9531 15.8594 31.1719 14.8438 29.9219 13.4375C30.0781 12.8906 30.7812 10.8594 29.6875 8.125C28.0469 7.57812 24.2969 10.2344 24.2969 10.2344C22.7344 9.76562 21.0938 9.60938 19.375 9.60938C17.7344 9.60938 16.0938 9.76562 14.5312 10.2344C14.5312 10.2344 10.7031 7.65625 9.14062 8.125C8.04688 10.8594 8.67188 12.8906 8.90625 13.4375C7.65625 14.8438 7.03125 15.8594 7.03125 18.0469C7.03125 25.5469 11.4844 26.1719 15.8594 26.6406C15.2344 27.1875 14.7656 28.0469 14.6094 29.2969C13.4375 29.8438 10.625 30.7031 8.90625 27.6562C7.8125 25.7812 5.85938 25.625 5.85938 25.625C3.98438 25.625 5.78125 26.875 5.78125 26.875C7.03125 27.4219 7.89062 29.6875 7.89062 29.6875C9.0625 33.2031 14.5312 32.0312 14.5312 32.0312C14.5312 33.6719 14.5312 36.3281 14.5312 36.875C14.5312 37.3438 14.2188 37.9688 13.2031 37.8125C5.39062 35.1562 0 27.7344 0 19.0625C0 8.28125 8.28125 0 19.0625 0ZM7.57812 26.9531C7.65625 26.875 7.8125 26.9531 7.96875 27.0312C8.125 27.1875 8.125 27.4219 8.04688 27.5C7.89062 27.5781 7.73438 27.5 7.57812 27.4219C7.5 27.2656 7.42188 27.0312 7.57812 26.9531ZM6.71875 26.3281C6.79688 26.25 6.875 26.25 7.03125 26.3281C7.1875 26.4062 7.26562 26.4844 7.26562 26.5625C7.1875 26.7188 7.03125 26.7188 6.875 26.6406C6.71875 26.5625 6.64062 26.4844 6.71875 26.3281ZM9.21875 29.1406C9.375 28.9844 9.60938 29.0625 9.76562 29.2188C9.92188 29.375 9.92188 29.6094 9.84375 29.6875C9.76562 29.8438 9.53125 29.7656 9.375 29.6094C9.14062 29.4531 9.14062 29.2188 9.21875 29.1406ZM8.35938 27.9688C8.51562 27.8906 8.67188 27.9688 8.82812 28.125C8.90625 28.2812 8.90625 28.5156 8.82812 28.5938C8.67188 28.6719 8.51562 28.5938 8.35938 28.4375C8.20312 28.2812 8.20312 28.0469 8.35938 27.9688Z" fill="#03AAE7"/>
</svg>
