<svg width="120" height="94" viewBox="0 0 120 94" fill="none" xmlns="http://www.w3.org/2000/svg">
<path d="M57.0718 54.8827C60.4792 54.8827 61.6306 51.6339 61.6306 50.4395H68.445C68.2045 53.0671 66.1407 60.3765 56.7828 60.3765C47.186 60.3765 44.9768 53.0671 44.9768 47.7165C44.9768 39.4993 48.5764 33.6231 57.2156 33.6231C61.2462 33.6231 67.8687 35.4387 68.4934 43.3687H61.6789C61.39 41.6969 60.3338 39.0693 57.2156 39.2607C52.9913 39.2607 51.8883 43.4644 51.8883 46.6176C51.8883 49.3883 51.9835 54.8827 57.0718 54.8827ZM42.7746 59.7079H36.0567V34.2918H42.7746V59.7079ZM32.8762 59.7079H26.1585V44.277C26.1585 42.4138 26.0615 39.2607 21.7904 39.2607C18.8159 39.2607 16.5116 41.267 16.5116 45.1371V59.7079H9.79379V34.2918H16.2241V38.0181H16.3194C17.2318 36.4893 19.1517 33.6231 23.9978 33.6231C28.9893 33.6231 32.8762 36.5374 32.8762 42.1268V59.7079ZM82.5794 60.3765C75.7163 60.3765 69.5252 56.1728 69.5252 47.0002C69.5252 37.8275 75.7163 33.6231 82.5794 33.6231C87.1988 33.6231 91.5098 35.5313 93.837 39.574C90.2605 17.1451 70.7492 -0.000434875 47.2128 -0.000434875C21.1379 -0.000434875 0 21.0422 0 46.9998C0 72.9573 21.1379 94 47.2128 94C70.7489 94 90.2601 76.8548 93.8368 54.4265C91.5098 58.4687 87.1986 60.3765 82.5794 60.3765Z" fill="#4DAAE3"/>
<path d="M76.4365 47.0002C76.4365 50.2484 77.3957 54.7397 82.5792 54.7397C87.7627 54.7397 88.7219 50.2484 88.7219 47.0002C88.7219 43.7513 87.7627 39.2606 82.5792 39.2606C77.3957 39.2606 76.4365 43.7513 76.4365 47.0002Z" fill="#4DAAE3"/>
<path d="M105.71 44.2203C105.71 45.9924 103.984 47.0833 102.286 47.0833C101.547 47.0833 100.506 46.6746 100.506 45.3379C100.506 43.7564 101.683 43.4019 103.107 43.1561C104.697 42.9113 105.327 42.6653 105.71 42.3654V44.2203ZM109.464 46.5927V38.7381C109.464 35.1653 105.71 34.5384 103.656 34.5384C100.67 34.5384 97.5731 35.1652 97.1348 39.6109H100.835C100.944 38.7658 101.273 37.593 103.189 37.593C104.177 37.593 105.71 37.6749 105.71 39.2831C105.71 40.1015 104.971 40.3473 104.368 40.4293L100.917 40.9476C99.3047 41.1819 97.9717 41.8969 97.2508 43.1717C98.438 44.0374 99.2138 45.4311 99.2138 47.0051C99.2138 47.805 99.0124 48.558 98.6605 49.2201C99.3945 49.6242 100.255 49.811 101.109 49.811C103.71 49.811 104.942 48.6106 105.819 47.7113C105.901 48.5286 105.957 48.7469 106.177 49.429H110.314V48.8564C109.846 48.6925 109.464 48.3105 109.464 46.5927Z" fill="#4DAAE3"/>
<path d="M111.534 34.9192H115.205V37.4288H115.261C116.056 35.9557 116.932 34.5381 119.26 34.5381C119.507 34.5381 119.754 34.5646 120 34.5925V38.4653C119.671 38.41 119.26 38.41 118.904 38.41C115.918 38.41 115.37 40.2651 115.37 41.8742V49.4287H111.534V34.9192Z" fill="#4DAAE3"/>
<path d="M94.4386 43.4129C92.4456 43.4129 90.8301 45.0211 90.8301 47.0049C90.8301 48.9889 92.4456 50.5972 94.4386 50.5972C96.4313 50.5972 98.0469 48.9889 98.0469 47.0049C98.0469 45.0211 96.4313 43.4129 94.4386 43.4129Z" fill="#E3A512"/>
</svg>
