<?xml version="1.0" encoding="UTF-8" standalone="no"?>
<!-- Created with Inkscape (http://www.inkscape.org/) -->

<svg
   width="135.46666mm"
   height="135.46666mm"
   viewBox="0 0 135.46666 135.46666"
   version="1.1"
   id="svg1"
   inkscape:version="1.4.2 (ebf0e940d0, 2025-05-08)"
   sodipodi:docname="favicon.svg"
   xmlns:inkscape="http://www.inkscape.org/namespaces/inkscape"
   xmlns:sodipodi="http://sodipodi.sourceforge.net/DTD/sodipodi-0.dtd"
   xmlns="http://www.w3.org/2000/svg"
   xmlns:svg="http://www.w3.org/2000/svg">
  <sodipodi:namedview
     id="namedview1"
     pagecolor="#ffffff"
     bordercolor="#000000"
     borderopacity="0.25"
     inkscape:showpageshadow="2"
     inkscape:pageopacity="0.0"
     inkscape:pagecheckerboard="0"
     inkscape:deskcolor="#d1d1d1"
     inkscape:document-units="mm"
     inkscape:zoom="1.0078851"
     inkscape:cx="283.26642"
     inkscape:cy="385.9567"
     inkscape:window-width="1920"
     inkscape:window-height="1011"
     inkscape:window-x="1920"
     inkscape:window-y="32"
     inkscape:window-maximized="1"
     inkscape:current-layer="layer1" />
  <defs
     id="defs1">
    <clipPath
       clipPathUnits="userSpaceOnUse"
       id="clipPath232">
      <path
         d="M 0,512 H 512 V 0 H 0 Z"
         transform="translate(-414.45871,-255.99771)"
         id="path232" />
    </clipPath>
    <clipPath
       clipPathUnits="userSpaceOnUse"
       id="clipPath230">
      <path
         d="M 0,512 H 512 V 0 H 0 Z"
         transform="translate(-309.45773,-213.06311)"
         id="path230" />
    </clipPath>
  </defs>
  <g
     inkscape:label="Layer 1"
     inkscape:groupmode="layer"
     id="layer1">
    <ellipse
       style="fill:#ffffff;fill-rule:evenodd;stroke-width:1.50117;paint-order:markers fill stroke"
       id="path1"
       cx="68.131073"
       cy="67.73333"
       rx="63.781742"
       ry="63.782001" />
    <g
       id="g1"
       transform="matrix(0.70624547,0,0,0.70624547,45.271756,46.55579)">
      <path
         id="path229"
         d="m 0,0 c 18.476,0 24.719,17.695 24.719,24.201 h 36.95 C 60.364,9.89 49.174,-29.924 -1.567,-29.924 c -52.037,0 -64.015,39.814 -64.015,68.958 0,44.756 19.518,76.763 66.361,76.763 21.856,0 57.764,-9.889 61.152,-53.082 H 24.981 C 23.414,71.821 17.687,86.132 0.779,85.09 -22.126,85.09 -28.106,62.193 -28.106,45.019 -28.106,29.928 -27.59,0 0,0 m -77.523,-26.281 h -36.426 v 138.437 h 36.426 z m -53.672,0 h -36.425 v 84.049 c 0,10.147 -0.525,27.322 -23.685,27.322 -16.129,0 -28.623,-10.927 -28.623,-32.007 v -79.364 h -36.426 v 138.436 h 34.868 V 91.858 h 0.516 c 4.947,8.328 15.358,23.939 41.635,23.939 27.065,0 48.14,-15.874 48.14,-46.318 z m 269.504,-3.643 c -37.213,0 -70.785,22.898 -70.785,72.859 0,49.961 33.572,72.862 70.785,72.862 25.046,0 48.422,-10.394 61.041,-32.412 -19.392,122.163 -125.188,215.552 -252.808,215.552 -141.385,0 -256,-114.616 -256,-256 0,-141.385 114.615,-256 256,-256 127.619,0 233.412,93.386 252.808,215.548 -12.619,-22.016 -35.995,-32.409 -61.041,-32.409"
         style="fill:#1ca8e0;fill-opacity:1;fill-rule:nonzero;stroke:none"
         transform="matrix(0.35277776,0,0,-0.35277776,51.225981,45.133288)"
         clip-path="url(#clipPath230)" />
      <path
         id="path231"
         d="m 0,0 c 0,-17.691 5.201,-42.155 33.308,-42.155 28.106,0 33.307,24.464 33.307,42.155 0,17.696 -5.201,42.155 -33.307,42.155 C 5.201,42.155 0,17.696 0,0"
         style="fill:#1ca8e0;fill-opacity:1;fill-rule:nonzero;stroke:none"
         transform="matrix(0.35277776,0,0,-0.35277776,88.267991,29.986916)"
         clip-path="url(#clipPath232)" />
    </g>
  </g>
</svg>
